<svg xmlns="http://www.w3.org/2000/svg" viewBox="-352 -352 1728 1728" width="432" height="432">
  <!-- The foreground of the Android app's adaptive icon: build/appicon.svg without its ground (the background
       color is @color/ic_launcher_background). The 1024 design takes the middle 64dp of the 108dp icon, inside
       the 66dp circle every launcher mask keeps.
       Rendered to res/mipmap-xxxhdpi/ic_launcher_foreground.png with Edge (see DEVELOPMENT.md: App icon) -->
  <path fill="#ffffff" fill-rule="evenodd"
        d="M249 196 H561 A214 214 0 0 1 561 624 H435 V846 H249 Z
           M435 350 H549 A60 60 0 0 1 549 470 H435 Z"/>
  <g transform="translate(625 236) rotate(16) scale(2.75)">
    <path fill="#ff6b8b" stroke="#242d3c" stroke-width="7" stroke-linejoin="round" paint-order="stroke"
          d="M50 88 C20 65 0 48 0 27 C0 17 5 9 12 5 L15 -13 L31 1 C40 2 46 7 50 13
             C54 7 60 2 69 1 L85 -13 L88 5 C95 9 100 17 100 27 C100 48 80 65 50 88 Z"/>
  </g>
</svg>
